<svg width="72" height="72" viewBox="0 0 72 72" fill="none" xmlns="http://www.w3.org/2000/svg">
<circle cx="36" cy="36" r="36" fill="#FF3767"/>
<path d="M51.32 40C50 43.84 46.84 47.08 42.52 48.78L40 49.78V52H32V49.78L29.46 48.78C25.14 47.08 21.98 43.84 20.66 40H51.32ZM56 16L20 19.98V36H16C16 43.38 20.94 49.72 28 52.5V56H44V52.5C51.06 49.72 56 43.38 56 36H33V28H56V25H33V21.56L56 19.02V16ZM28 25V22.12L30 21.9V25H28ZM23 25V22.68L25 22.46V25H23ZM28 36V28H30V36H28ZM23 36V28H25V36H23Z" fill="white"/>
</svg>
