<svg width="72" height="72" viewBox="0 0 72 72" fill="none" xmlns="http://www.w3.org/2000/svg">
<circle cx="36" cy="36" r="36" fill="#FF813B"/>
<g clip-path="url(#clip0_65_376)">
<path d="M53.7083 33.974C53.9791 33.302 53.9166 33.491 54.0208 33.155C54.6458 30.614 53.3124 27.968 50.8958 27.002L46.7083 25.322C45.7499 24.944 44.7291 24.881 43.7708 25.07C43.5416 24.377 43.1666 23.747 42.6874 23.201C41.6874 22.109 40.2916 21.5 38.8333 21.5H33.1874C31.7083 21.5 30.3124 22.109 29.3333 23.201C28.8333 23.747 28.4583 24.377 28.2291 25.049C27.2708 24.86 26.2499 24.923 25.2916 25.301L21.1041 26.981C18.6874 27.947 17.3541 30.593 17.9791 33.134L18.2916 33.932C13.2916 43.655 13.0833 43.655 13.0833 45.398C13.0833 47.309 14.0416 49.052 15.6666 50.06C18.6249 51.908 20.8541 50.354 23.9999 48.779H48.0208C51.1874 50.375 51.8958 50.9 53.4999 50.9C55.5833 50.9 58.9374 49.283 58.9374 45.419C58.9166 43.634 58.6666 43.571 53.7083 33.974ZM52.9166 46.553L49.4166 44.789L51.6666 39.119L54.6041 44.81C55.1874 45.923 53.9999 47.099 52.9166 46.553ZM42.4374 44.579L43.7291 30.089C43.7916 29.396 44.4999 28.955 45.1458 29.207L49.3333 30.887C49.7916 31.076 50.0416 31.538 49.9791 32.021L44.9791 44.579H42.4374ZM26.9999 44.579L21.9999 32.021C21.9374 31.538 22.1874 31.076 22.6458 30.887L26.8333 29.207C27.4791 28.955 28.1874 29.375 28.2499 30.089L29.5416 44.579H26.9999ZM17.3958 44.81L20.3333 39.098L22.5833 44.789L19.0833 46.553C17.9999 47.099 16.8124 45.923 17.3958 44.81ZM32.1458 26.834C32.0833 26.183 32.6249 25.7 33.1874 25.7H38.8333C39.3958 25.7 39.9374 26.183 39.8749 26.834L38.2708 44.579H33.7499L32.1458 26.834Z" fill="white"/>
</g>
<defs>
<clipPath id="clip0_65_376">
<rect width="50" height="50.4" fill="white" transform="translate(11 11)"/>
</clipPath>
</defs>
</svg>
