<svg width="72" height="72" viewBox="0 0 72 72" fill="none" xmlns="http://www.w3.org/2000/svg">
<circle cx="36" cy="36" r="36" fill="#683EDE"/>
<path d="M56.8127 37.8247L39.156 20.1603C38.4162 19.4201 37.3964 19 36.3366 19H21.9992C19.7997 19 18 20.8005 18 23.001V37.3446C18 38.4049 18.4199 39.4251 19.1798 40.1653L36.8365 57.8297C38.3962 59.3901 40.9357 59.3901 42.4954 57.8297L56.8327 43.4861C58.3924 41.9257 58.3924 39.4051 56.8127 37.8247ZM39.6559 55.009L21.9992 37.3446V23.001H36.3366L53.9932 40.6654L39.6559 55.009Z" fill="white"/>
<path d="M26.5 31C28.1569 31 29.5 29.6569 29.5 28C29.5 26.3431 28.1569 25 26.5 25C24.8431 25 23.5 26.3431 23.5 28C23.5 29.6569 24.8431 31 26.5 31Z" fill="white"/>
</svg>
