<svg width="32" height="32" viewBox="0 0 32 32" fill="none" xmlns="http://www.w3.org/2000/svg">
<path d="M22.7143 17.2857H16.2857V23.7143C16.2857 24.4214 15.7071 25 15 25C14.2929 25 13.7143 24.4214 13.7143 23.7143V17.2857H7.28571C6.57857 17.2857 6 16.7071 6 16C6 15.2929 6.57857 14.7143 7.28571 14.7143H13.7143V8.28571C13.7143 7.57857 14.2929 7 15 7C15.7071 7 16.2857 7.57857 16.2857 8.28571V14.7143H22.7143C23.4214 14.7143 24 15.2929 24 16C24 16.7071 23.4214 17.2857 22.7143 17.2857Z" fill="#8600EF"/>
</svg>
