<svg width="72" height="72" viewBox="0 0 72 72" fill="none" xmlns="http://www.w3.org/2000/svg">
<circle cx="36" cy="36" r="36" fill="#FF42BF"/>
<path d="M55.8021 29.78L53.7014 21.04C53.2613 19.24 51.7008 18 49.8802 18H22.0912C20.2907 18 18.7101 19.26 18.29 21.04L16.1893 29.78C15.7092 31.82 16.1493 33.9 17.4297 35.54C17.5898 35.76 17.8099 35.92 17.9899 36.12V50C17.9899 52.2 19.7905 54 21.9912 54H50.0002C52.2009 54 54.0015 52.2 54.0015 50V36.12C54.1816 35.94 54.4016 35.76 54.5617 35.56C55.8421 33.92 56.3022 31.82 55.8021 29.78ZM49.8202 21.98L51.9208 30.72C52.1209 31.56 51.9408 32.4 51.4207 33.06C51.1406 33.42 50.5404 34 49.5401 34C48.3197 34 47.2593 33.02 47.1193 31.72L45.9589 22L49.8202 21.98ZM37.9963 22H41.9176L42.998 31.04C43.098 31.82 42.8579 32.6 42.3377 33.18C41.8976 33.7 41.2574 34 40.4371 34C39.0967 34 37.9963 32.82 37.9963 31.38V22ZM28.9734 31.04L30.0738 22H33.9951V31.38C33.9951 32.82 32.8947 34 31.4142 34C30.734 34 30.1138 33.7 29.6337 33.18C29.1335 32.6 28.8934 31.82 28.9734 31.04ZM20.0706 30.72L22.0912 22H26.0325L24.8721 31.72C24.7121 33.02 23.6717 34 22.4513 34C21.471 34 20.8508 33.42 20.5907 33.06C20.0506 32.42 19.8705 31.56 20.0706 30.72ZM21.9912 50V37.94C22.1513 37.96 22.2913 38 22.4513 38C24.1919 38 25.7724 37.28 26.9328 36.1C28.1332 37.3 29.7337 38 31.5543 38C33.2948 38 34.8553 37.28 36.0157 36.14C37.1961 37.28 38.7966 38 40.5972 38C42.2777 38 43.8782 37.3 45.0786 36.1C46.239 37.28 47.8195 38 49.5601 38C49.7201 38 49.8602 37.96 50.0202 37.94V50H21.9912Z" fill="white"/>
</svg>
