<svg width="72" height="72" viewBox="0 0 72 72" fill="none" xmlns="http://www.w3.org/2000/svg">
<circle cx="36" cy="36" r="36" fill="#BE3AEC"/>
<path d="M51.78 33.5C51.92 34.32 52 35.14 52 36C52 44.82 44.82 52 36 52C27.18 52 20 44.82 20 36C20 35.9 20.02 35.8 20 35.72C25.2 33.76 29.38 29.74 31.48 24.62C38.24 32.9 47.42 32.08 49.46 31.84L47.68 27.98C47.42 28 38.44 28.74 33.32 20.26C35.34 19.94 36.74 19.96 38.5 20.24C43.54 17.94 42.36 18.46 44.02 17.72C41.56 16.6 38.86 16 36 16C24.96 16 16 24.96 16 36C16 47.04 24.96 56 36 56C47.04 56 56 47.04 56 36C56 33.14 55.4 30.44 54.32 27.98L51.78 33.5ZM28.16 22.06C26.9 25.84 24.26 29 20.84 30.94C22.1 27.16 24.74 24 28.16 22.06Z" fill="white"/>
<path d="M42 40.5C43.3807 40.5 44.5 39.3807 44.5 38C44.5 36.6193 43.3807 35.5 42 35.5C40.6193 35.5 39.5 36.6193 39.5 38C39.5 39.3807 40.6193 40.5 42 40.5Z" fill="white"/>
<path d="M30 40.5C31.3807 40.5 32.5 39.3807 32.5 38C32.5 36.6193 31.3807 35.5 30 35.5C28.6193 35.5 27.5 36.6193 27.5 38C27.5 39.3807 28.6193 40.5 30 40.5Z" fill="white"/>
<path d="M58 21L53.2 18.8L51 14L48.8 18.8L44 21L48.8 23.2L51 28L53.2 23.2L58 21Z" fill="white"/>
</svg>
