<svg width="72" height="72" viewBox="0 0 72 72" fill="none" xmlns="http://www.w3.org/2000/svg">
<circle cx="36" cy="36" r="36" fill="#FF3B8D"/>
<path d="M43 33C43 31.9 43.9 31 45 31C46.1 31 47 31.9 47 33C47 34.1 46.1 35 45 35C43.9 35 43 34.1 43 33ZM29 31H39V27H29V31ZM57 28V41.94L51.36 43.82L48 55H37V51H33V55H22C22 55 17 38.08 17 32C17 25.92 21.92 21 28 21H38C39.82 18.58 42.72 17 46 17C47.66 17 49 18.34 49 20C49 20.42 48.92 20.8 48.76 21.16C48.48 21.84 48.24 22.62 48.12 23.46L52.66 28H57ZM53 32H51L44 25C44 23.7 44.18 22.42 44.52 21.18C42.58 21.68 41 23.12 40.34 25H28C24.14 25 21 28.14 21 32C21 35.76 23.44 45.3 25.02 51H29V47H41V51H45.02L48.12 40.7L53 39.06V32Z" fill="white"/>
</svg>
