<svg width="72" height="72" viewBox="0 0 72 72" fill="none" xmlns="http://www.w3.org/2000/svg">
<circle cx="36" cy="36" r="36" fill="#21CDB8"/>
<path d="M47.4585 36L55.3967 28.0579C56.1745 27.2796 56.1745 26.0224 55.3967 25.2442L46.7405 16.5837C45.9626 15.8054 44.7061 15.8054 43.9282 16.5837L35.99 24.5258L28.0519 16.5837C27.653 16.2045 27.1543 16.005 26.6358 16.005C26.1371 16.005 25.6186 16.2045 25.2396 16.5837L16.5834 25.2442C15.8055 26.0224 15.8055 27.2796 16.5834 28.0579L24.5216 36L16.5834 43.9421C15.8055 44.7204 15.8055 45.9775 16.5834 46.7558L25.2396 55.4163C26.0175 56.1946 27.274 56.1946 28.0519 55.4163L35.99 47.4742L43.9282 55.4163C44.3271 55.8154 44.8257 55.995 45.3443 55.995C45.8629 55.995 46.3615 55.7955 46.7604 55.4163L55.4166 46.7558C56.1945 45.9775 56.1945 44.7204 55.4166 43.9421L47.4585 36ZM36.0299 29.9736C37.1269 29.9736 38.0244 30.8715 38.0244 31.9691C38.0244 33.0666 37.1269 33.9646 36.0299 33.9646C34.9329 33.9646 34.0354 33.0666 34.0354 31.9691C34.0354 30.8715 34.9329 29.9736 36.0299 29.9736ZM26.6358 33.8848L19.3957 26.661L26.6358 19.4173L33.8559 26.6411L26.6358 33.8848ZM32.0409 37.9556C30.9439 37.9556 30.0464 37.0576 30.0464 35.9601C30.0464 34.8626 30.9439 33.9646 32.0409 33.9646C33.1379 33.9646 34.0354 34.8626 34.0354 35.9601C34.0354 37.0576 33.1379 37.9556 32.0409 37.9556ZM36.0299 41.9466C34.9329 41.9466 34.0354 41.0486 34.0354 39.9511C34.0354 38.8536 34.9329 37.9556 36.0299 37.9556C37.1269 37.9556 38.0244 38.8536 38.0244 39.9511C38.0244 41.0486 37.1269 41.9466 36.0299 41.9466ZM40.0189 33.9646C41.1159 33.9646 42.0135 34.8626 42.0135 35.9601C42.0135 37.0576 41.1159 37.9556 40.0189 37.9556C38.922 37.9556 38.0244 37.0576 38.0244 35.9601C38.0244 34.8626 38.922 33.9646 40.0189 33.9646ZM45.3244 52.6026L38.0843 45.3789L45.3244 38.1352L52.5445 45.3589L45.3244 52.6026Z" fill="white"/>
</svg>
