<svg width="72" height="72" viewBox="0 0 72 72" fill="none" xmlns="http://www.w3.org/2000/svg">
<circle cx="36" cy="36" r="36" fill="#FFB931"/>
<path d="M36 16C24.96 16 16 24.96 16 36C16 47.04 24.96 56 36 56C47.04 56 56 47.04 56 36C56 24.96 47.04 16 36 16ZM36 52C27.18 52 20 44.82 20 36C20 27.18 27.18 20 36 20C44.82 20 52 27.18 52 36C52 44.82 44.82 52 36 52ZM36.62 34.28C33.08 33.38 31.94 32.4 31.94 30.94C31.94 29.26 33.52 28.08 36.14 28.08C38.9 28.08 39.94 29.4 40.02 31.36H43.44C43.34 28.68 41.7 26.22 38.46 25.42V22H33.8V25.38C30.78 26.02 28.36 27.98 28.36 31C28.36 34.58 31.34 36.38 35.68 37.42C39.58 38.34 40.36 39.72 40.36 41.16C40.36 42.22 39.58 43.94 36.16 43.94C32.96 43.94 31.7 42.5 31.52 40.66H28.08C28.28 44.06 30.8 45.98 33.8 46.6V50H38.48V46.66C41.52 46.08 43.92 44.34 43.94 41.12C43.92 36.72 40.14 35.2 36.62 34.28Z" fill="white"/>
</svg>
