<svg width="72" height="72" viewBox="0 0 72 72" fill="none" xmlns="http://www.w3.org/2000/svg">
<circle cx="36" cy="36" r="36" fill="#46A6EB"/>
<path d="M54 26.56V22C54 19.8 52.2 18 50 18H22C19.78 18 18 19.8 18 22V50C18 52.2 19.78 54 22 54H50C52.2 54 54 52.2 54 50V45.44C55.18 44.74 56 43.48 56 42V30C56 28.52 55.18 27.26 54 26.56ZM52 30V42H38V30H52ZM22 50V22H50V26H38C35.8 26 34 27.8 34 30V42C34 44.2 35.8 46 38 46H50V50H22Z" fill="white"/>
<path d="M44 39C45.6569 39 47 37.6569 47 36C47 34.3431 45.6569 33 44 33C42.3431 33 41 34.3431 41 36C41 37.6569 42.3431 39 44 39Z" fill="white"/>
</svg>
